<svg width="167" height="40" viewBox="0 0 167 40" fill="none" xmlns="http://www.w3.org/2000/svg">
<path fill-rule="evenodd" clip-rule="evenodd" d="M83.5 11C78.5294 11 74.5 15.0294 74.5 20C74.5 24.9706 78.5294 29 83.5 29C88.4706 29 92.5 24.9706 92.5 20C92.5 15.0294 88.4706 11 83.5 11ZM72.5 20C72.5 13.9249 77.4249 9 83.5 9C89.5751 9 94.5 13.9249 94.5 20C94.5 26.0751 89.5751 31 83.5 31C77.4249 31 72.5 26.0751 72.5 20Z" fill="#484C52"/>
<path fill-rule="evenodd" clip-rule="evenodd" d="M83.5 13C84.0523 13 84.5 13.4477 84.5 14V19.382L87.9472 21.1056C88.4412 21.3526 88.6414 21.9532 88.3944 22.4472C88.1474 22.9412 87.5468 23.1414 87.0528 22.8944L83.0528 20.8944C82.714 20.725 82.5 20.3788 82.5 20V14C82.5 13.4477 82.9477 13 83.5 13Z" fill="#484C52"/>
</svg>
