<svg width="89" height="40" viewBox="0 0 89 40" fill="none" xmlns="http://www.w3.org/2000/svg">
<path fill-rule="evenodd" clip-rule="evenodd" d="M43.8861 9.21065C44.2472 8.92978 44.7528 8.92978 45.1139 9.21065L54.1139 16.2106C54.3575 16.4001 54.5 16.6914 54.5 17V28C54.5 28.7957 54.1839 29.5587 53.6213 30.1213C53.0587 30.6839 52.2957 31 51.5 31H37.5C36.7043 31 35.9413 30.6839 35.3787 30.1213C34.8161 29.5587 34.5 28.7957 34.5 28V17C34.5 16.6914 34.6425 16.4001 34.8861 16.2106L43.8861 9.21065ZM36.5 17.4891V28C36.5 28.2652 36.6054 28.5196 36.7929 28.7071C36.9804 28.8946 37.2348 29 37.5 29H51.5C51.7652 29 52.0196 28.8946 52.2071 28.7071C52.3946 28.5196 52.5 28.2652 52.5 28V17.4891L44.5 11.2669L36.5 17.4891Z" fill="#484C52"/>
<path fill-rule="evenodd" clip-rule="evenodd" d="M40.5 20C40.5 19.4477 40.9477 19 41.5 19H47.5C48.0523 19 48.5 19.4477 48.5 20V30C48.5 30.5523 48.0523 31 47.5 31C46.9477 31 46.5 30.5523 46.5 30V21H42.5V30C42.5 30.5523 42.0523 31 41.5 31C40.9477 31 40.5 30.5523 40.5 30V20Z" fill="#484C52"/>
</svg>
