<svg width="25" height="24" viewBox="0 0 25 24" fill="none" xmlns="http://www.w3.org/2000/svg">
<path fill-rule="evenodd" clip-rule="evenodd" d="M12.5 3C7.52944 3 3.5 7.02944 3.5 12C3.5 16.9706 7.52944 21 12.5 21C17.4706 21 21.5 16.9706 21.5 12C21.5 7.02944 17.4706 3 12.5 3ZM1.5 12C1.5 5.92487 6.42487 1 12.5 1C18.5751 1 23.5 5.92487 23.5 12C23.5 18.0751 18.5751 23 12.5 23C6.42487 23 1.5 18.0751 1.5 12Z" fill="#484C52"/>
<path fill-rule="evenodd" clip-rule="evenodd" d="M12.5 5C13.0523 5 13.5 5.44772 13.5 6V11.382L16.9472 13.1056C17.4412 13.3526 17.6414 13.9532 17.3944 14.4472C17.1474 14.9412 16.5468 15.1414 16.0528 14.8944L12.0528 12.8944C11.714 12.725 11.5 12.3788 11.5 12V6C11.5 5.44772 11.9477 5 12.5 5Z" fill="#484C52"/>
</svg>
