<svg width="85" height="40" viewBox="0 0 85 40" fill="none" xmlns="http://www.w3.org/2000/svg">
<path fill-rule="evenodd" clip-rule="evenodd" d="M34.9645 23.4645C35.9021 22.5268 37.1739 22 38.5 22H46.5C47.8261 22 49.0979 22.5268 50.0355 23.4645C50.9732 24.4021 51.5 25.6739 51.5 27V29C51.5 29.5523 51.0523 30 50.5 30C49.9477 30 49.5 29.5523 49.5 29V27C49.5 26.2044 49.1839 25.4413 48.6213 24.8787C48.0587 24.3161 47.2956 24 46.5 24H38.5C37.7044 24 36.9413 24.3161 36.3787 24.8787C35.8161 25.4413 35.5 26.2044 35.5 27V29C35.5 29.5523 35.0523 30 34.5 30C33.9477 30 33.5 29.5523 33.5 29V27C33.5 25.6739 34.0268 24.4021 34.9645 23.4645Z" fill="#484C52"/>
<path fill-rule="evenodd" clip-rule="evenodd" d="M42.5 12C40.8431 12 39.5 13.3431 39.5 15C39.5 16.6569 40.8431 18 42.5 18C44.1569 18 45.5 16.6569 45.5 15C45.5 13.3431 44.1569 12 42.5 12ZM37.5 15C37.5 12.2386 39.7386 10 42.5 10C45.2614 10 47.5 12.2386 47.5 15C47.5 17.7614 45.2614 20 42.5 20C39.7386 20 37.5 17.7614 37.5 15Z" fill="#484C52"/>
</svg>
