<svg width="24" height="24" viewBox="0 0 24 24" fill="none" xmlns="http://www.w3.org/2000/svg">
<path d="M19.3037 12C19.3037 16.0339 16.0337 19.3039 11.9999 19.3039V21.4962C17.2444 21.4962 21.496 17.2446 21.496 12H19.3037ZM11.9999 19.3039C7.96603 19.3039 4.69598 16.0339 4.69598 12H2.50373C2.50373 17.2446 6.75529 21.4962 11.9999 21.4962V19.3039ZM4.69598 12C4.69598 7.96622 7.96603 4.69616 11.9999 4.69616V2.50391C6.75529 2.50391 2.50373 6.75547 2.50373 12H4.69598ZM11.9999 4.69616C16.0337 4.69616 19.3037 7.96622 19.3037 12H21.496C21.496 6.75547 17.2444 2.50391 11.9999 2.50391V4.69616ZM14.6371 12C14.6371 13.4565 13.4563 14.6372 11.9999 14.6372V16.8295C14.6671 16.8295 16.8293 14.6673 16.8293 12H14.6371ZM11.9999 14.6372C10.5434 14.6372 9.36265 13.4565 9.36265 12H7.1704C7.1704 14.6673 9.33262 16.8295 11.9999 16.8295V14.6372ZM9.36265 12C9.36265 10.5435 10.5434 9.36283 11.9999 9.36283V7.17058C9.33262 7.17058 7.1704 9.3328 7.1704 12H9.36265ZM11.9999 9.36283C13.4563 9.36283 14.6371 10.5435 14.6371 12H16.8293C16.8293 9.3328 14.6671 7.17058 11.9999 7.17058V9.36283ZM17.1645 5.28526L13.8646 8.58509L15.4148 10.1352L18.7146 6.83542L17.1645 5.28526ZM13.8646 15.415L17.1645 18.7148L18.7146 17.1647L15.4148 13.8648L13.8646 15.415ZM10.1351 8.58509L6.83523 5.28526L5.28508 6.83542L8.58491 10.1352L10.1351 8.58509ZM8.58491 13.8648L5.28508 17.1647L6.83523 18.7148L10.1351 15.415L8.58491 13.8648Z" fill="#323232"/>
</svg>
