<svg width="22" height="22" viewBox="0 0 22 22" fill="none" xmlns="http://www.w3.org/2000/svg">
<path d="M1.99432 9.97891H3.98025C5.10802 9.97891 6.02226 10.8932 6.02226 12.0209V13.0419C6.02226 14.1697 6.9365 15.084 8.06428 15.084C9.19205 15.084 10.1063 15.9982 10.1063 17.126V20.1329M7.04327 2.76602V4.36337C7.04327 5.77309 8.18607 6.91589 9.59579 6.91589H10.1063C11.2341 6.91589 12.1483 7.83013 12.1483 8.95791C12.1483 10.0857 13.0626 10.9999 14.1903 10.9999C15.3181 10.9999 16.2323 10.0857 16.2323 8.95791C16.2323 7.83013 17.1466 6.91589 18.2744 6.91589L19.3612 6.91589M14.1903 19.6661V17.126C14.1903 15.9982 15.1046 15.084 16.2323 15.084H19.3612M20.3164 10.9999C20.3164 16.0749 16.2023 20.189 11.1273 20.189C6.05232 20.189 1.93823 16.0749 1.93823 10.9999C1.93823 5.92494 6.05232 1.81085 11.1273 1.81085C16.2023 1.81085 20.3164 5.92494 20.3164 10.9999Z" stroke="#323232" stroke-width="2.19225" stroke-linecap="round" stroke-linejoin="round"/>
</svg>
